<?xml version="1.0" standalone="no"?>
<!DOCTYPE svg PUBLIC "-//W3C//DTD SVG 20010904//EN"
 "http://www.w3.org/TR/2001/REC-SVG-20010904/DTD/svg10.dtd">
<svg version="1.0" xmlns="http://www.w3.org/2000/svg"
 width="700.000000pt" height="700.000000pt" viewBox="0 0 700.000000 700.000000"
 preserveAspectRatio="xMidYMid meet">
<metadata>
Created by potrace 1.14, written by Peter Selinger 2001-2017
</metadata>
<g transform="translate(0.000000,700.000000) scale(0.100000,-0.100000)"
fill="#000000" stroke="none">
<path d="M2130 6540 l0 -150 -305 0 -305 0 0 -150 0 -150 -302 -2 -303 -3 -3
-152 -3 -153 -149 0 -150 0 0 -305 0 -305 -150 0 -150 0 0 -1520 0 -1520 150
0 150 0 0 -150 0 -150 155 0 155 0 0 -155 0 -155 145 0 145 0 0 305 0 305 155
0 155 0 0 -150 0 -150 760 0 760 0 0 150 0 150 -760 0 -760 0 0 150 0 150
-152 0 -153 0 0 458 0 457 913 3 912 2 0 150 0 150 -150 0 -150 0 0 150 0 150
-455 0 -455 0 0 -150 0 -150 -155 0 -155 0 0 460 0 460 1068 0 1067 0 -3 -305
-3 -305 151 0 150 0 0 150 0 150 155 0 155 0 0 150 0 150 -155 0 -155 0 0 155
0 155 -300 0 -300 0 0 150 0 150 -150 0 -150 0 0 -150 0 -150 -155 0 -155 0 0
150 0 150 -150 0 -150 0 0 -150 0 -150 -155 0 -155 0 0 150 0 150 -150 0 -150
0 0 -150 0 -150 -155 0 -155 0 0 300 0 300 -150 0 -150 0 0 -455 0 -455 -150
0 -150 0 -3 -307 c-1 -170 -3 -30 -5 310 l-2 617 150 0 150 0 0 150 0 150 155
0 154 0 4 158 c1 86 4 19 5 -150 l2 -308 145 0 145 0 0 455 0 455 305 0 304 0
4 153 c1 83 4 -121 5 -455 l2 -608 145 0 145 0 2 608 c1 334 4 538 5 455 l4
-153 149 0 149 0 4 153 c1 83 4 -121 5 -455 l2 -608 145 0 145 0 2 608 c1 334
4 538 5 455 l4 -153 149 0 149 0 4 153 c1 83 4 -121 5 -455 l2 -608 145 0 145
0 2 608 c1 334 4 538 5 455 l4 -153 149 0 149 0 4 153 c1 83 4 -121 5 -455 l2
-608 145 0 145 0 2 608 c1 334 4 538 5 455 l4 -153 304 0 305 0 0 -455 0 -455
145 0 145 0 2 308 c1 169 4 236 5 150 l4 -158 304 0 305 0 -2 -767 c-2 -423
-4 -630 -5 -460 l-3 307 -150 0 -150 0 0 455 0 455 -150 0 -150 0 0 -300 0
-300 -155 0 -155 0 0 150 0 150 -150 0 -150 0 0 -150 0 -150 -155 0 -155 0 0
150 0 150 -300 0 -300 0 0 -150 0 -150 150 0 150 0 0 -150 0 -150 610 0 610 0
0 -460 0 -460 -155 0 -155 0 0 150 0 150 -455 0 -455 0 0 -150 0 -150 -150 0
-150 0 0 -150 0 -150 913 -2 912 -3 0 -457 0 -458 -152 0 -153 0 0 -150 0
-150 -760 0 -760 0 0 -150 0 -150 760 0 760 0 0 150 0 150 155 0 155 0 0 -305
0 -305 145 0 145 0 0 155 0 155 155 0 155 0 0 150 0 150 150 0 150 0 0 1520 0
1520 -150 0 -150 0 0 305 0 305 -150 0 -149 0 -3 153 -3 152 -302 3 -303 2 0
150 0 150 -305 0 -305 0 0 150 0 150 -1370 0 -1370 0 0 -150z m-1220 -3717 c0
-126 3 -333 7 -460 l6 -233 -156 0 -157 0 0 460 0 460 150 0 150 0 0 -227z
m5480 -233 l0 -460 -157 0 -156 0 6 233 c4 127 7 334 7 460 l0 227 150 0 150
0 0 -460z"/>
<path d="M1830 5630 l0 -450 150 0 150 0 0 305 0 305 150 0 150 0 0 145 0 145
-300 0 -300 0 0 -450z"/>
<path d="M2740 5630 l0 -450 150 0 150 0 0 450 0 450 -150 0 -150 0 0 -450z"/>
<path d="M3350 5630 l0 -450 150 0 150 0 0 450 0 450 -150 0 -150 0 0 -450z"/>
<path d="M3960 5630 l0 -450 150 0 150 0 0 450 0 450 -150 0 -150 0 0 -450z"/>
<path d="M4570 5935 l0 -145 150 0 150 0 0 -305 0 -305 150 0 150 0 0 450 0
450 -300 0 -300 0 0 -145z"/>
<path d="M2140 5480 l0 -300 145 0 145 0 0 300 0 300 -145 0 -145 0 0 -300z"/>
<path d="M4570 5480 l0 -300 145 0 145 0 0 300 0 300 -145 0 -145 0 0 -300z"/>
<path d="M5790 5020 l0 -450 145 0 145 0 0 450 0 450 -145 0 -145 0 0 -450z"/>
<path d="M920 4870 l0 -300 145 0 145 0 0 300 0 300 -145 0 -145 0 0 -300z"/>
<path d="M3045 3040 c-4 -170 -4 -445 0 -610 l7 -300 149 0 149 0 0 460 0 460
150 0 150 0 0 -460 0 -460 149 0 149 0 7 300 c4 165 4 440 0 610 l-7 310 -448
0 -448 0 -7 -310z"/>
<path d="M1220 1370 l0 -150 150 0 150 0 0 150 0 150 -150 0 -150 0 0 -150z"/>
<path d="M3050 1370 l0 -150 450 0 450 0 0 150 0 150 -450 0 -450 0 0 -150z"/>
<path d="M5480 1370 l0 -150 150 0 150 0 0 150 0 150 -150 0 -150 0 0 -150z"/>
<path d="M1520 1065 l0 -145 305 0 305 0 0 145 0 145 -305 0 -305 0 0 -145z"/>
<path d="M4870 1065 l0 -145 305 0 305 0 0 145 0 145 -305 0 -305 0 0 -145z"/>
<path d="M2130 760 l0 -150 305 0 305 0 0 -150 0 -150 760 0 760 0 0 150 0
150 305 0 305 0 0 150 0 150 -305 0 -305 0 0 -150 0 -150 -760 0 -760 0 0 150
0 150 -305 0 -305 0 0 -150z"/>
</g>
</svg>
